<mxfile host="65bd71144e">
    <diagram id="FGTOHPj3YCh0T4GT6jC4" name="Page-1">
        <mxGraphModel dx="1043" dy="693" grid="0" gridSize="10" guides="1" tooltips="1" connect="1" arrows="1" fold="1" page="0" pageScale="1" pageWidth="850" pageHeight="1100" math="0" shadow="0">
            <root>
                <mxCell id="0"/>
                <mxCell id="1" parent="0"/>
                <mxCell id="28" value="Dungeon" style="swimlane;whiteSpace=wrap;html=1;" parent="1" vertex="1">
                    <mxGeometry x="255" y="299" width="358" height="228" as="geometry"/>
                </mxCell>
                <mxCell id="29" value="- 3D grid containing Dungeon Parts" style="text;html=1;align=center;verticalAlign=middle;whiteSpace=wrap;rounded=0;strokeColor=default;" parent="28" vertex="1">
                    <mxGeometry x="218" y="28" width="124" height="50" as="geometry"/>
                </mxCell>
                <mxCell id="30" value="Attributes" style="swimlane;whiteSpace=wrap;html=1;" parent="28" vertex="1">
                    <mxGeometry x="4" y="28" width="200" height="200" as="geometry"/>
                </mxCell>
                <mxCell id="32" value="- Size : v3&lt;div&gt;- Parts : prefabs/DungeonParts&lt;/div&gt;&lt;div&gt;-&amp;nbsp;&lt;/div&gt;" style="text;html=1;align=left;verticalAlign=top;whiteSpace=wrap;rounded=0;" parent="30" vertex="1">
                    <mxGeometry y="24" width="199" height="176" as="geometry"/>
                </mxCell>
                <mxCell id="42" style="edgeStyle=none;html=1;endArrow=diamondThin;endFill=0;endSize=25;" parent="1" source="34" target="38" edge="1">
                    <mxGeometry relative="1" as="geometry"/>
                </mxCell>
                <mxCell id="34" value="Dungeon" style="swimlane;fontStyle=1;align=center;verticalAlign=top;childLayout=stackLayout;horizontal=1;startSize=26;horizontalStack=0;resizeParent=1;resizeParentMax=0;resizeLast=0;collapsible=1;marginBottom=0;whiteSpace=wrap;html=1;" parent="1" vertex="1">
                    <mxGeometry x="283.5" y="579" width="248" height="109" as="geometry"/>
                </mxCell>
                <mxCell id="35" value="&lt;div&gt;&lt;font style=&quot;color: light-dark(rgb(0, 0, 0), rgb(255, 255, 255));&quot;&gt;- voxelSize : v3&lt;/font&gt;&lt;/div&gt;&lt;font style=&quot;color: light-dark(rgb(0, 0, 0), rgb(255, 255, 255));&quot;&gt;- dungeonSizeInVoxels : v3&lt;/font&gt;&lt;div&gt;&lt;font style=&quot;color: light-dark(rgb(0, 0, 0), rgb(255, 255, 255));&quot;&gt;- Parts : List&amp;lt;DungeonParts/GameObject&amp;gt;&lt;/font&gt;&lt;/div&gt;" style="text;strokeColor=none;fillColor=none;align=left;verticalAlign=top;spacingLeft=4;spacingRight=4;overflow=hidden;rotatable=0;points=[[0,0.5],[1,0.5]];portConstraint=eastwest;whiteSpace=wrap;html=1;" parent="34" vertex="1">
                    <mxGeometry y="26" width="248" height="49" as="geometry"/>
                </mxCell>
                <mxCell id="36" value="" style="line;strokeWidth=1;fillColor=none;align=left;verticalAlign=middle;spacingTop=-1;spacingLeft=3;spacingRight=3;rotatable=0;labelPosition=right;points=[];portConstraint=eastwest;strokeColor=inherit;" parent="34" vertex="1">
                    <mxGeometry y="75" width="248" height="8" as="geometry"/>
                </mxCell>
                <mxCell id="37" value="+ Generate() : void" style="text;strokeColor=none;fillColor=none;align=left;verticalAlign=top;spacingLeft=4;spacingRight=4;overflow=hidden;rotatable=0;points=[[0,0.5],[1,0.5]];portConstraint=eastwest;whiteSpace=wrap;html=1;" parent="34" vertex="1">
                    <mxGeometry y="83" width="248" height="26" as="geometry"/>
                </mxCell>
                <mxCell id="38" value="DungeonPart" style="swimlane;fontStyle=1;align=center;verticalAlign=top;childLayout=stackLayout;horizontal=1;startSize=26;horizontalStack=0;resizeParent=1;resizeParentMax=0;resizeLast=0;collapsible=1;marginBottom=0;whiteSpace=wrap;html=1;" parent="1" vertex="1">
                    <mxGeometry x="589" y="597" width="160" height="68" as="geometry"/>
                </mxCell>
                <mxCell id="39" value="&lt;font style=&quot;color: light-dark(rgb(0, 0, 0), rgb(255, 255, 255));&quot;&gt;+ m_Prefab : GameObject&lt;/font&gt;&lt;div&gt;&lt;font style=&quot;color: light-dark(rgb(0, 0, 0), rgb(255, 255, 255));&quot;&gt;+ m_MaxIterations : int&lt;/font&gt;&lt;/div&gt;" style="text;strokeColor=none;fillColor=none;align=left;verticalAlign=top;spacingLeft=4;spacingRight=4;overflow=hidden;rotatable=0;points=[[0,0.5],[1,0.5]];portConstraint=eastwest;whiteSpace=wrap;html=1;" parent="38" vertex="1">
                    <mxGeometry y="26" width="160" height="34" as="geometry"/>
                </mxCell>
                <mxCell id="40" value="" style="line;strokeWidth=1;fillColor=none;align=left;verticalAlign=middle;spacingTop=-1;spacingLeft=3;spacingRight=3;rotatable=0;labelPosition=right;points=[];portConstraint=eastwest;strokeColor=inherit;" parent="38" vertex="1">
                    <mxGeometry y="60" width="160" height="8" as="geometry"/>
                </mxCell>
                <mxCell id="43" value="What is data is required by the geometry?&lt;div&gt;&lt;br&gt;&lt;/div&gt;&lt;div&gt;- Entrances/Exit locations&lt;/div&gt;&lt;div&gt;- Orientation&lt;/div&gt;&lt;div&gt;- VoxelLocation of entrance/exit&lt;/div&gt;" style="rounded=0;whiteSpace=wrap;html=1;" parent="1" vertex="1">
                    <mxGeometry x="300.5" y="716" width="214" height="87" as="geometry"/>
                </mxCell>
                <mxCell id="44" value="CorridorPrefab" style="swimlane;whiteSpace=wrap;html=1;" parent="1" vertex="1">
                    <mxGeometry x="857" y="584" width="233" height="253" as="geometry"/>
                </mxCell>
                <mxCell id="45" value="Hierarchy" style="swimlane;whiteSpace=wrap;html=1;" parent="44" vertex="1">
                    <mxGeometry y="24" width="100" height="124" as="geometry"/>
                </mxCell>
                <mxCell id="46" value="&lt;font style=&quot;color: light-dark(rgb(0, 0, 0), rgb(255, 255, 255));&quot;&gt;- DOORS&lt;/font&gt;&lt;div&gt;&lt;font style=&quot;color: light-dark(rgb(0, 0, 0), rgb(255, 255, 255));&quot;&gt;- GEOMETRY&lt;/font&gt;&lt;/div&gt;&lt;div&gt;&lt;font style=&quot;color: light-dark(rgb(0, 0, 0), rgb(255, 255, 255));&quot;&gt;- ITEMSPOTS&lt;/font&gt;&lt;/div&gt;&lt;div&gt;&lt;font style=&quot;color: light-dark(rgb(0, 0, 0), rgb(255, 255, 255));&quot;&gt;- SPAWNPOINTS&lt;/font&gt;&lt;/div&gt;&lt;div&gt;&lt;font style=&quot;color: light-dark(rgb(0, 0, 0), rgb(255, 255, 255));&quot;&gt;- ETC&lt;/font&gt;&lt;/div&gt;" style="text;html=1;align=left;verticalAlign=top;whiteSpace=wrap;rounded=0;" parent="45" vertex="1">
                    <mxGeometry y="24" width="100" height="100" as="geometry"/>
                </mxCell>
                <mxCell id="47" value="PartPrefab" style="swimlane;fontStyle=1;align=center;verticalAlign=top;childLayout=stackLayout;horizontal=1;startSize=26;horizontalStack=0;resizeParent=1;resizeParentMax=0;resizeLast=0;collapsible=1;marginBottom=0;whiteSpace=wrap;html=1;" parent="1" vertex="1">
                    <mxGeometry x="623" y="788" width="187" height="140" as="geometry"/>
                </mxCell>
                <mxCell id="48" value="&lt;font style=&quot;color: light-dark(rgb(0, 0, 0), rgb(255, 255, 255));&quot;&gt;+ xLock : bool&lt;/font&gt;&lt;div&gt;&lt;font style=&quot;color: light-dark(rgb(0, 0, 0), rgb(255, 255, 255));&quot;&gt;+ yLock : bool&lt;/font&gt;&lt;/div&gt;&lt;div&gt;&lt;font style=&quot;color: light-dark(rgb(0, 0, 0), rgb(255, 255, 255));&quot;&gt;+ zLock : bool&lt;/font&gt;&lt;/div&gt;&lt;div&gt;&lt;font style=&quot;color: light-dark(rgb(0, 0, 0), rgb(255, 255, 255));&quot;&gt;+ SizeInVoxels : vec3&lt;/font&gt;&lt;/div&gt;&lt;div&gt;&lt;font style=&quot;color: light-dark(rgb(0, 0, 0), rgb(255, 255, 255));&quot;&gt;+ DoorGOs : List&amp;lt;GameObject&amp;gt;&lt;br&gt;&lt;/font&gt;&lt;/div&gt;" style="text;strokeColor=none;fillColor=none;align=left;verticalAlign=top;spacingLeft=4;spacingRight=4;overflow=hidden;rotatable=0;points=[[0,0.5],[1,0.5]];portConstraint=eastwest;whiteSpace=wrap;html=1;" parent="47" vertex="1">
                    <mxGeometry y="26" width="187" height="80" as="geometry"/>
                </mxCell>
                <mxCell id="49" value="" style="line;strokeWidth=1;fillColor=none;align=left;verticalAlign=middle;spacingTop=-1;spacingLeft=3;spacingRight=3;rotatable=0;labelPosition=right;points=[];portConstraint=eastwest;strokeColor=inherit;" parent="47" vertex="1">
                    <mxGeometry y="106" width="187" height="8" as="geometry"/>
                </mxCell>
                <mxCell id="50" value="+ method(type): type" style="text;strokeColor=none;fillColor=none;align=left;verticalAlign=top;spacingLeft=4;spacingRight=4;overflow=hidden;rotatable=0;points=[[0,0.5],[1,0.5]];portConstraint=eastwest;whiteSpace=wrap;html=1;" parent="47" vertex="1">
                    <mxGeometry y="114" width="187" height="26" as="geometry"/>
                </mxCell>
                <mxCell id="51" value="Algorithm Flowchart" style="swimlane;whiteSpace=wrap;html=1;" parent="1" vertex="1">
                    <mxGeometry x="1253" y="448" width="1753" height="1321" as="geometry"/>
                </mxCell>
                <mxCell id="66" style="edgeStyle=none;html=1;" parent="51" source="52" edge="1">
                    <mxGeometry relative="1" as="geometry">
                        <mxPoint x="149" y="73" as="targetPoint"/>
                    </mxGeometry>
                </mxCell>
                <mxCell id="52" value="Add gamble room to stack" style="rounded=0;whiteSpace=wrap;html=1;" parent="51" vertex="1">
                    <mxGeometry x="6" y="43" width="120" height="60" as="geometry"/>
                </mxCell>
                <mxCell id="72" style="edgeStyle=none;html=1;" parent="51" source="55" target="70" edge="1">
                    <mxGeometry relative="1" as="geometry"/>
                </mxCell>
                <mxCell id="55" value="For each free connection" style="shape=cube;whiteSpace=wrap;html=1;boundedLbl=1;backgroundOutline=1;darkOpacity=0.05;darkOpacity2=0.1;" parent="51" vertex="1">
                    <mxGeometry x="6" y="232" width="120" height="80" as="geometry"/>
                </mxCell>
                <mxCell id="62" style="edgeStyle=none;html=1;" parent="51" source="59" target="61" edge="1">
                    <mxGeometry relative="1" as="geometry"/>
                </mxCell>
                <mxCell id="59" value="Rotate New Piece so first connection is opposite direction of free connection (-X to +X), etc.&amp;nbsp;" style="rounded=0;whiteSpace=wrap;html=1;" parent="51" vertex="1">
                    <mxGeometry x="292" y="242" width="157" height="60" as="geometry"/>
                </mxCell>
                <mxCell id="64" style="edgeStyle=none;html=1;" parent="51" source="61" target="63" edge="1">
                    <mxGeometry relative="1" as="geometry"/>
                </mxCell>
                <mxCell id="61" value="New Piece Position = NewPieceEntrancePosition - FreeConnectionPosition" style="rounded=0;whiteSpace=wrap;html=1;" parent="51" vertex="1">
                    <mxGeometry x="472" y="242" width="169" height="60" as="geometry"/>
                </mxCell>
                <mxCell id="73" style="edgeStyle=none;html=1;entryX=1;entryY=1;entryDx=0;entryDy=0;" parent="51" source="63" target="68" edge="1">
                    <mxGeometry relative="1" as="geometry">
                        <Array as="points">
                            <mxPoint x="724" y="204"/>
                            <mxPoint x="285" y="206"/>
                        </Array>
                    </mxGeometry>
                </mxCell>
                <mxCell id="63" value="Add new piece to stack" style="rounded=0;whiteSpace=wrap;html=1;" parent="51" vertex="1">
                    <mxGeometry x="664" y="242" width="120" height="60" as="geometry"/>
                </mxCell>
                <mxCell id="75" value="No" style="edgeStyle=none;html=1;" parent="51" source="68" target="74" edge="1">
                    <mxGeometry x="-0.0625" y="-13" relative="1" as="geometry">
                        <mxPoint as="offset"/>
                    </mxGeometry>
                </mxCell>
                <mxCell id="68" value="Is stack populated?" style="rhombus;whiteSpace=wrap;html=1;" parent="51" vertex="1">
                    <mxGeometry x="149" y="33" width="107" height="80" as="geometry"/>
                </mxCell>
                <mxCell id="69" value="Yes" style="edgeStyle=none;html=1;entryX=0;entryY=0;entryDx=50;entryDy=0;entryPerimeter=0;" parent="51" source="68" target="55" edge="1">
                    <mxGeometry x="-0.1798" y="11" relative="1" as="geometry">
                        <Array as="points">
                            <mxPoint x="203" y="148"/>
                            <mxPoint x="56" y="150"/>
                        </Array>
                        <mxPoint as="offset"/>
                    </mxGeometry>
                </mxCell>
                <mxCell id="71" style="edgeStyle=none;html=1;entryX=0;entryY=0.5;entryDx=0;entryDy=0;" parent="51" source="70" target="59" edge="1">
                    <mxGeometry relative="1" as="geometry">
                        <mxPoint x="293" y="272" as="targetPoint"/>
                    </mxGeometry>
                </mxCell>
                <mxCell id="70" value="New Piece = Pop stack" style="rounded=0;whiteSpace=wrap;html=1;" parent="51" vertex="1">
                    <mxGeometry x="149" y="242" width="120" height="60" as="geometry"/>
                </mxCell>
                <mxCell id="74" value="End" style="rounded=1;whiteSpace=wrap;html=1;" parent="51" vertex="1">
                    <mxGeometry x="288" y="43" width="120" height="60" as="geometry"/>
                </mxCell>
                <mxCell id="94" style="edgeStyle=none;html=1;" edge="1" parent="51" source="76" target="80">
                    <mxGeometry relative="1" as="geometry"/>
                </mxCell>
                <mxCell id="76" value="START" style="strokeWidth=2;html=1;shape=mxgraph.flowchart.terminator;whiteSpace=wrap;" vertex="1" parent="51">
                    <mxGeometry x="16" y="374" width="100" height="60" as="geometry"/>
                </mxCell>
                <mxCell id="81" style="edgeStyle=none;html=1;" edge="1" parent="51" target="80">
                    <mxGeometry relative="1" as="geometry">
                        <mxPoint x="276" y="404" as="sourcePoint"/>
                    </mxGeometry>
                </mxCell>
                <mxCell id="83" style="edgeStyle=none;html=1;" edge="1" parent="51" source="80" target="82">
                    <mxGeometry relative="1" as="geometry"/>
                </mxCell>
                <mxCell id="80" value="Setup generator" style="shape=process;whiteSpace=wrap;html=1;backgroundOutline=1;" vertex="1" parent="51">
                    <mxGeometry x="315" y="374" width="120" height="60" as="geometry"/>
                </mxCell>
                <mxCell id="85" style="edgeStyle=none;html=1;" edge="1" parent="51" source="82" target="84">
                    <mxGeometry relative="1" as="geometry"/>
                </mxCell>
                <mxCell id="82" value="Generate dungeon" style="shape=process;whiteSpace=wrap;html=1;backgroundOutline=1;" vertex="1" parent="51">
                    <mxGeometry x="476" y="374" width="120" height="60" as="geometry"/>
                </mxCell>
                <mxCell id="84" value="END" style="strokeWidth=2;html=1;shape=mxgraph.flowchart.terminator;whiteSpace=wrap;" vertex="1" parent="51">
                    <mxGeometry x="636" y="374" width="100" height="60" as="geometry"/>
                </mxCell>
                <mxCell id="86" value="Setup generator" style="swimlane;whiteSpace=wrap;html=1;" vertex="1" parent="51">
                    <mxGeometry x="8" y="453" width="491" height="181" as="geometry"/>
                </mxCell>
                <mxCell id="89" style="edgeStyle=none;html=1;" edge="1" parent="86" source="87" target="88">
                    <mxGeometry relative="1" as="geometry"/>
                </mxCell>
                <mxCell id="87" value="START" style="strokeWidth=2;html=1;shape=mxgraph.flowchart.terminator;whiteSpace=wrap;" vertex="1" parent="86">
                    <mxGeometry x="22" y="77.5" width="100" height="60" as="geometry"/>
                </mxCell>
                <mxCell id="91" style="edgeStyle=none;html=1;" edge="1" parent="86" source="88">
                    <mxGeometry relative="1" as="geometry">
                        <mxPoint x="310" y="107.5" as="targetPoint"/>
                    </mxGeometry>
                </mxCell>
                <mxCell id="88" value="Create PartStack" style="rounded=0;whiteSpace=wrap;html=1;" vertex="1" parent="86">
                    <mxGeometry x="153" y="77.5" width="120" height="60" as="geometry"/>
                </mxCell>
                <mxCell id="105" value="END" style="strokeWidth=2;html=1;shape=mxgraph.flowchart.terminator;whiteSpace=wrap;" vertex="1" parent="86">
                    <mxGeometry x="383" y="77.5" width="100" height="60" as="geometry"/>
                </mxCell>
                <mxCell id="106" value="Youch" style="text;html=1;align=center;verticalAlign=middle;whiteSpace=wrap;rounded=0;" vertex="1" parent="86">
                    <mxGeometry x="315" y="119" width="60" height="30" as="geometry"/>
                </mxCell>
                <mxCell id="107" value="Generate Dungeon" style="swimlane;whiteSpace=wrap;html=1;" vertex="1" parent="51">
                    <mxGeometry x="6" y="645" width="1714" height="234" as="geometry"/>
                </mxCell>
                <mxCell id="110" style="edgeStyle=none;html=1;" edge="1" parent="107" target="109">
                    <mxGeometry relative="1" as="geometry">
                        <mxPoint x="99" y="87" as="sourcePoint"/>
                    </mxGeometry>
                </mxCell>
                <mxCell id="108" value="START" style="strokeWidth=2;html=1;shape=mxgraph.flowchart.terminator;whiteSpace=wrap;" vertex="1" parent="107">
                    <mxGeometry x="6" y="57" width="100" height="60" as="geometry"/>
                </mxCell>
                <mxCell id="112" style="edgeStyle=none;html=1;" edge="1" parent="107" source="109" target="111">
                    <mxGeometry relative="1" as="geometry"/>
                </mxCell>
                <mxCell id="109" value="Instantiate StarterRoom" style="rounded=0;whiteSpace=wrap;html=1;" vertex="1" parent="107">
                    <mxGeometry x="133" y="57" width="120" height="60" as="geometry"/>
                </mxCell>
                <mxCell id="114" style="edgeStyle=none;html=1;" edge="1" parent="107" source="111" target="113">
                    <mxGeometry relative="1" as="geometry"/>
                </mxCell>
                <mxCell id="111" value="Push StarterRoom onto Stack" style="rounded=0;whiteSpace=wrap;html=1;" vertex="1" parent="107">
                    <mxGeometry x="287" y="57" width="120" height="60" as="geometry"/>
                </mxCell>
                <mxCell id="115" value="No" style="edgeStyle=none;html=1;" edge="1" parent="107" source="113" target="116">
                    <mxGeometry x="-0.0482" y="11" relative="1" as="geometry">
                        <mxPoint x="577.9375" y="87" as="targetPoint"/>
                        <mxPoint as="offset"/>
                    </mxGeometry>
                </mxCell>
                <mxCell id="128" value="Yes" style="edgeStyle=none;html=1;" edge="1" parent="107" source="113" target="127">
                    <mxGeometry x="-0.1282" y="12" relative="1" as="geometry">
                        <mxPoint as="offset"/>
                    </mxGeometry>
                </mxCell>
                <mxCell id="113" value="PieceStack empty?" style="rhombus;whiteSpace=wrap;html=1;" vertex="1" parent="107">
                    <mxGeometry x="437" y="47" width="80" height="80" as="geometry"/>
                </mxCell>
                <mxCell id="118" style="edgeStyle=none;html=1;" edge="1" parent="107" source="116" target="117">
                    <mxGeometry relative="1" as="geometry"/>
                </mxCell>
                <mxCell id="116" value="CurrentPiece = PieceStack.pop()" style="rounded=0;whiteSpace=wrap;html=1;" vertex="1" parent="107">
                    <mxGeometry x="538" y="57" width="98.5" height="60" as="geometry"/>
                </mxCell>
                <mxCell id="120" style="edgeStyle=none;html=1;" edge="1" parent="107" source="117">
                    <mxGeometry relative="1" as="geometry">
                        <mxPoint x="850" y="87" as="targetPoint"/>
                    </mxGeometry>
                </mxCell>
                <mxCell id="117" value="&lt;span&gt;&lt;font style=&quot;color: light-dark(rgb(255, 255, 255), rgb(255, 255, 255));&quot;&gt;CurrentConnectionPoint = First unconnected point on CurrentPiece&lt;/font&gt;&lt;/span&gt;" style="rounded=0;whiteSpace=wrap;html=1;" vertex="1" parent="107">
                    <mxGeometry x="658" y="57" width="170" height="60" as="geometry"/>
                </mxCell>
                <mxCell id="123" value="Yes" style="edgeStyle=none;html=1;" edge="1" parent="107" source="121" target="122">
                    <mxGeometry x="-0.0909" y="11" relative="1" as="geometry">
                        <mxPoint as="offset"/>
                    </mxGeometry>
                </mxCell>
                <mxCell id="121" value="Are there pieces with iterations &amp;lt; maxIterations?" style="rhombus;whiteSpace=wrap;html=1;" vertex="1" parent="107">
                    <mxGeometry x="850" y="47" width="143" height="80" as="geometry"/>
                </mxCell>
                <mxCell id="126" style="edgeStyle=none;html=1;" edge="1" parent="107" source="122" target="125">
                    <mxGeometry relative="1" as="geometry"/>
                </mxCell>
                <mxCell id="122" value="PieceToConnect = Randomly selected piece from PieceList where Piece.Iteration &amp;lt; Piece.maxIterations" style="rounded=0;whiteSpace=wrap;html=1;" vertex="1" parent="107">
                    <mxGeometry x="1022" y="57" width="185" height="60" as="geometry"/>
                </mxCell>
                <mxCell id="131" style="edgeStyle=none;html=1;" edge="1" parent="107" source="125" target="130">
                    <mxGeometry relative="1" as="geometry"/>
                </mxCell>
                <mxCell id="125" value="Rotate PieceToConnect so that PieceToConnect.orientation -&amp;gt; CurrentConnectionPoint.orientation" style="shape=process;whiteSpace=wrap;html=1;backgroundOutline=1;" vertex="1" parent="107">
                    <mxGeometry x="1236" y="57" width="268" height="60" as="geometry"/>
                </mxCell>
                <mxCell id="127" value="END" style="strokeWidth=2;html=1;shape=mxgraph.flowchart.terminator;whiteSpace=wrap;" vertex="1" parent="107">
                    <mxGeometry x="427" y="166" width="100" height="60" as="geometry"/>
                </mxCell>
                <mxCell id="129" style="edgeStyle=none;html=1;entryX=1;entryY=0.5;entryDx=0;entryDy=0;entryPerimeter=0;" edge="1" parent="107" source="121" target="127">
                    <mxGeometry relative="1" as="geometry">
                        <Array as="points">
                            <mxPoint x="923" y="196"/>
                        </Array>
                    </mxGeometry>
                </mxCell>
                <mxCell id="132" style="edgeStyle=none;html=1;entryX=0.5;entryY=0;entryDx=0;entryDy=0;exitX=1;exitY=0.5;exitDx=0;exitDy=0;" edge="1" parent="107" source="139" target="113">
                    <mxGeometry relative="1" as="geometry">
                        <Array as="points">
                            <mxPoint x="1703" y="87"/>
                            <mxPoint x="1703" y="33"/>
                            <mxPoint x="477" y="36"/>
                        </Array>
                    </mxGeometry>
                </mxCell>
                <mxCell id="140" style="edgeStyle=none;html=1;" edge="1" parent="107" source="130" target="139">
                    <mxGeometry relative="1" as="geometry"/>
                </mxCell>
                <mxCell id="130" value="Move PieceToConnect to connect to CurrentPiece" style="shape=process;whiteSpace=wrap;html=1;backgroundOutline=1;" vertex="1" parent="107">
                    <mxGeometry x="1533" y="57" width="120" height="60" as="geometry"/>
                </mxCell>
                <mxCell id="139" value="Check for overlaps" style="shape=process;whiteSpace=wrap;html=1;backgroundOutline=1;" vertex="1" parent="107">
                    <mxGeometry x="1533" y="139" width="120" height="60" as="geometry"/>
                </mxCell>
                <mxCell id="133" value="Rotate PieceToConnect(PieceToConnect, targetOrientation)" style="swimlane;whiteSpace=wrap;html=1;" vertex="1" parent="51">
                    <mxGeometry x="6" y="912" width="865" height="399" as="geometry"/>
                </mxCell>
                <mxCell id="136" style="edgeStyle=none;html=1;" edge="1" parent="133" source="134" target="135">
                    <mxGeometry relative="1" as="geometry"/>
                </mxCell>
                <mxCell id="134" value="START" style="strokeWidth=2;html=1;shape=mxgraph.flowchart.terminator;whiteSpace=wrap;" vertex="1" parent="133">
                    <mxGeometry x="6" y="30" width="100" height="60" as="geometry"/>
                </mxCell>
                <mxCell id="135" value="switch(PieceToConnect.orientation)" style="rounded=0;whiteSpace=wrap;html=1;" vertex="1" parent="133">
                    <mxGeometry x="122" y="30" width="218" height="60" as="geometry"/>
                </mxCell>
                <mxCell id="137" value="&lt;div style=&quot;color: rgb(204, 204, 204); background-color: rgb(31, 31, 31); font-family: &amp;quot;Droid Sans Mono&amp;quot;, &amp;quot;monospace&amp;quot;, monospace; font-weight: normal; font-size: 14px; line-height: 19px; white-space: pre;&quot;&gt;enum Orientation&lt;/div&gt;" style="swimlane;whiteSpace=wrap;html=1;" vertex="1" parent="1">
                    <mxGeometry x="984" y="1384" width="200" height="166" as="geometry"/>
                </mxCell>
                <mxCell id="138" value="&lt;div style=&quot;font-family: &amp;quot;Droid Sans Mono&amp;quot;, &amp;quot;monospace&amp;quot;, monospace; font-size: 14px; text-align: center; white-space-collapse: preserve;&quot;&gt;&lt;span style=&quot;color: rgb(204, 204, 204);&quot;&gt;{&lt;/span&gt;&lt;/div&gt;&lt;div style=&quot;font-family: &amp;quot;Droid Sans Mono&amp;quot;, &amp;quot;monospace&amp;quot;, monospace; font-size: 14px; text-align: center; white-space-collapse: preserve;&quot;&gt;&lt;span style=&quot;color: rgb(204, 204, 204);&quot;&gt;        &lt;/span&gt;&lt;span style=&quot;color: rgb(79, 193, 255);&quot;&gt;XPos&lt;/span&gt;&lt;span style=&quot;color: rgb(204, 204, 204);&quot;&gt; &lt;/span&gt;&lt;span style=&quot;color: rgb(212, 212, 212);&quot;&gt;=&lt;/span&gt;&lt;span style=&quot;color: rgb(204, 204, 204);&quot;&gt; &lt;/span&gt;&lt;span style=&quot;color: rgb(181, 206, 168);&quot;&gt;1&lt;/span&gt;&lt;span style=&quot;color: rgb(204, 204, 204);&quot;&gt;,&lt;/span&gt;&lt;/div&gt;&lt;div style=&quot;font-family: &amp;quot;Droid Sans Mono&amp;quot;, &amp;quot;monospace&amp;quot;, monospace; font-size: 14px; text-align: center; white-space-collapse: preserve;&quot;&gt;&lt;span style=&quot;color: rgb(204, 204, 204);&quot;&gt;        &lt;/span&gt;&lt;span style=&quot;color: rgb(79, 193, 255);&quot;&gt;XNeg&lt;/span&gt;&lt;span style=&quot;color: rgb(204, 204, 204);&quot;&gt; &lt;/span&gt;&lt;span style=&quot;color: rgb(212, 212, 212);&quot;&gt;=&lt;/span&gt;&lt;span style=&quot;color: rgb(204, 204, 204);&quot;&gt; &lt;/span&gt;&lt;span style=&quot;color: rgb(181, 206, 168);&quot;&gt;2&lt;/span&gt;&lt;span style=&quot;color: rgb(204, 204, 204);&quot;&gt;,&lt;/span&gt;&lt;/div&gt;&lt;div style=&quot;font-family: &amp;quot;Droid Sans Mono&amp;quot;, &amp;quot;monospace&amp;quot;, monospace; font-size: 14px; text-align: center; white-space-collapse: preserve;&quot;&gt;&lt;span style=&quot;color: rgb(204, 204, 204);&quot;&gt;        &lt;/span&gt;&lt;span style=&quot;color: rgb(79, 193, 255);&quot;&gt;YPos&lt;/span&gt;&lt;span style=&quot;color: rgb(204, 204, 204);&quot;&gt; &lt;/span&gt;&lt;span style=&quot;color: rgb(212, 212, 212);&quot;&gt;=&lt;/span&gt;&lt;span style=&quot;color: rgb(204, 204, 204);&quot;&gt; &lt;/span&gt;&lt;span style=&quot;color: rgb(181, 206, 168);&quot;&gt;4&lt;/span&gt;&lt;span style=&quot;color: rgb(204, 204, 204);&quot;&gt;,&lt;/span&gt;&lt;/div&gt;&lt;div style=&quot;font-family: &amp;quot;Droid Sans Mono&amp;quot;, &amp;quot;monospace&amp;quot;, monospace; font-size: 14px; text-align: center; white-space-collapse: preserve;&quot;&gt;&lt;span style=&quot;color: rgb(204, 204, 204);&quot;&gt;        &lt;/span&gt;&lt;span style=&quot;color: rgb(79, 193, 255);&quot;&gt;YNeg&lt;/span&gt;&lt;span style=&quot;color: rgb(204, 204, 204);&quot;&gt; &lt;/span&gt;&lt;span style=&quot;color: rgb(212, 212, 212);&quot;&gt;=&lt;/span&gt;&lt;span style=&quot;color: rgb(204, 204, 204);&quot;&gt; &lt;/span&gt;&lt;span style=&quot;color: rgb(181, 206, 168);&quot;&gt;8&lt;/span&gt;&lt;span style=&quot;color: rgb(204, 204, 204);&quot;&gt;,&lt;/span&gt;&lt;/div&gt;&lt;div style=&quot;font-family: &amp;quot;Droid Sans Mono&amp;quot;, &amp;quot;monospace&amp;quot;, monospace; font-size: 14px; text-align: center; white-space-collapse: preserve;&quot;&gt;&lt;span style=&quot;color: rgb(204, 204, 204);&quot;&gt;        &lt;/span&gt;&lt;span style=&quot;color: rgb(79, 193, 255);&quot;&gt;ZPos&lt;/span&gt;&lt;span style=&quot;color: rgb(204, 204, 204);&quot;&gt; &lt;/span&gt;&lt;span style=&quot;color: rgb(212, 212, 212);&quot;&gt;=&lt;/span&gt;&lt;span style=&quot;color: rgb(204, 204, 204);&quot;&gt; &lt;/span&gt;&lt;span style=&quot;color: rgb(181, 206, 168);&quot;&gt;16&lt;/span&gt;&lt;span style=&quot;color: rgb(204, 204, 204);&quot;&gt;,&lt;/span&gt;&lt;/div&gt;&lt;div style=&quot;font-family: &amp;quot;Droid Sans Mono&amp;quot;, &amp;quot;monospace&amp;quot;, monospace; font-size: 14px; text-align: center; white-space-collapse: preserve;&quot;&gt;&lt;span style=&quot;color: rgb(204, 204, 204);&quot;&gt;        &lt;/span&gt;&lt;span style=&quot;color: rgb(79, 193, 255);&quot;&gt;ZNeg&lt;/span&gt;&lt;span style=&quot;color: rgb(204, 204, 204);&quot;&gt; &lt;/span&gt;&lt;span style=&quot;color: rgb(212, 212, 212);&quot;&gt;=&lt;/span&gt;&lt;span style=&quot;color: rgb(204, 204, 204);&quot;&gt; &lt;/span&gt;&lt;span style=&quot;color: rgb(181, 206, 168);&quot;&gt;32&lt;/span&gt;&lt;/div&gt;&lt;div style=&quot;font-family: &amp;quot;Droid Sans Mono&amp;quot;, &amp;quot;monospace&amp;quot;, monospace; font-size: 14px; text-align: center; white-space-collapse: preserve;&quot;&gt;&lt;span style=&quot;color: rgb(204, 204, 204);&quot;&gt;    }&lt;/span&gt;&lt;/div&gt;" style="text;html=1;align=left;verticalAlign=top;resizable=0;points=[];autosize=1;strokeColor=none;fillColor=none;" vertex="1" parent="137">
                    <mxGeometry y="23" width="169" height="146" as="geometry"/>
                </mxCell>
            </root>
        </mxGraphModel>
    </diagram>
</mxfile>